<svg width="30" height="30" viewBox="0 0 30 30" fill="none" xmlns="http://www.w3.org/2000/svg">
<mask id="path-1-outside-1_5_36" maskUnits="userSpaceOnUse" x="5" y="4" width="19" height="21" fill="black">
<rect fill="white" x="5" y="4" width="19" height="21"/>
<path fill-rule="evenodd" clip-rule="evenodd" d="M13.5 20C9.35786 20 6 16.6421 6 12.5C6 8.35786 9.35786 5 13.5 5C17.6421 5 21 8.35786 21 12.5C21 14.4805 20.2324 16.2816 18.9784 17.6222L22.7809 22.3753C23.1259 22.8066 23.056 23.4359 22.6247 23.7809C22.1934 24.1259 21.5641 24.056 21.2191 23.6247L17.4304 18.8888C16.2875 19.5935 14.9412 20 13.5 20ZM13.5 18C16.5376 18 19 15.5376 19 12.5C19 9.46243 16.5376 7 13.5 7C10.4624 7 8 9.46243 8 12.5C8 15.5376 10.4624 18 13.5 18Z"/>
</mask>
<path fill-rule="evenodd" clip-rule="evenodd" d="M13.5 20C9.35786 20 6 16.6421 6 12.5C6 8.35786 9.35786 5 13.5 5C17.6421 5 21 8.35786 21 12.5C21 14.4805 20.2324 16.2816 18.9784 17.6222L22.7809 22.3753C23.1259 22.8066 23.056 23.4359 22.6247 23.7809C22.1934 24.1259 21.5641 24.056 21.2191 23.6247L17.4304 18.8888C16.2875 19.5935 14.9412 20 13.5 20ZM13.5 18C16.5376 18 19 15.5376 19 12.5C19 9.46243 16.5376 7 13.5 7C10.4624 7 8 9.46243 8 12.5C8 15.5376 10.4624 18 13.5 18Z" fill="#525AAC"/>
<path d="M18.9784 17.6222L18.7593 17.4173L18.582 17.6069L18.7442 17.8096L18.9784 17.6222ZM22.7809 22.3753L22.5466 22.5627L22.5466 22.5627L22.7809 22.3753ZM21.2191 23.6247L21.4534 23.4373L21.4534 23.4373L21.2191 23.6247ZM17.4304 18.8888L17.6647 18.7014L17.4989 18.4942L17.273 18.6335L17.4304 18.8888ZM5.7 12.5C5.7 16.8078 9.19218 20.3 13.5 20.3V19.7C9.52355 19.7 6.3 16.4765 6.3 12.5H5.7ZM13.5 4.7C9.19218 4.7 5.7 8.19218 5.7 12.5H6.3C6.3 8.52355 9.52355 5.3 13.5 5.3V4.7ZM21.3 12.5C21.3 8.19218 17.8078 4.7 13.5 4.7V5.3C17.4765 5.3 20.7 8.52355 20.7 12.5H21.3ZM19.1975 17.8272C20.5014 16.4332 21.3 14.5595 21.3 12.5H20.7C20.7 14.4014 19.9634 16.1301 18.7593 17.4173L19.1975 17.8272ZM18.7442 17.8096L22.5466 22.5627L23.0151 22.1879L19.2127 17.4348L18.7442 17.8096ZM22.5466 22.5627C22.7881 22.8646 22.7392 23.3051 22.4373 23.5466L22.8121 24.0151C23.3727 23.5666 23.4636 22.7485 23.0151 22.1879L22.5466 22.5627ZM22.4373 23.5466C22.1354 23.7881 21.6949 23.7392 21.4534 23.4373L20.9849 23.8121C21.4334 24.3727 22.2515 24.4636 22.8121 24.0151L22.4373 23.5466ZM21.4534 23.4373L17.6647 18.7014L17.1962 19.0763L20.9849 23.8121L21.4534 23.4373ZM13.5 20.3C14.9984 20.3 16.399 19.8772 17.5879 19.1442L17.273 18.6335C16.1761 19.3098 14.8841 19.7 13.5 19.7V20.3ZM18.7 12.5C18.7 15.3719 16.3719 17.7 13.5 17.7V18.3C16.7033 18.3 19.3 15.7033 19.3 12.5H18.7ZM13.5 7.3C16.3719 7.3 18.7 9.62812 18.7 12.5H19.3C19.3 9.29675 16.7033 6.7 13.5 6.7V7.3ZM8.3 12.5C8.3 9.62812 10.6281 7.3 13.5 7.3V6.7C10.2967 6.7 7.7 9.29675 7.7 12.5H8.3ZM13.5 17.7C10.6281 17.7 8.3 15.3719 8.3 12.5H7.7C7.7 15.7033 10.2967 18.3 13.5 18.3V17.7Z" fill="#525AAC" mask="url(#path-1-outside-1_5_36)"/>
<mask id="mask0_5_36" style="mask-type:luminance" maskUnits="userSpaceOnUse" x="6" y="5" width="17" height="19">
<path fill-rule="evenodd" clip-rule="evenodd" d="M13.5 20C9.35786 20 6 16.6421 6 12.5C6 8.35786 9.35786 5 13.5 5C17.6421 5 21 8.35786 21 12.5C21 14.4805 20.2324 16.2816 18.9784 17.6222L22.7809 22.3753C23.1259 22.8066 23.056 23.4359 22.6247 23.7809C22.1934 24.1259 21.5641 24.056 21.2191 23.6247L17.4304 18.8888C16.2875 19.5935 14.9412 20 13.5 20ZM13.5 18C16.5376 18 19 15.5376 19 12.5C19 9.46243 16.5376 7 13.5 7C10.4624 7 8 9.46243 8 12.5C8 15.5376 10.4624 18 13.5 18Z" fill="white"/>
</mask>
<g mask="url(#mask0_5_36)">
<rect width="30" height="30" fill="#525AAC"/>
</g>
</svg>
